<svg width="145" height="69" viewBox="0 0 145 69" fill="none" xmlns="http://www.w3.org/2000/svg">
<path d="M95.7143 63.318L100.62 54.5013H95.5957L95.7984 52.5678H101.08L101.386 49.6553H103.918L103.611 52.5678H108.774L108.571 54.5013H103.354L103.325 54.7436L102.716 55.8463H104.378L107.602 63.318H104.862L102.128 56.9243L98.5527 63.318H95.7143Z" fill="white"/>
<path d="M107.429 66.2301L107.632 64.2967H93.5979L94.7155 53.6948H92.2727L90.9574 66.2301H107.429Z" fill="white"/>
<path d="M94.9677 51.9593L95.2298 49.4819H92.6337L92.3766 51.9593H94.9677Z" fill="white"/>
<path d="M35.7922 56.4985L35.451 66.2301H37.5526L37.9086 56.4985H35.7922Z" fill="white"/>
<path d="M39.1053 53.5024H35.0702L35.273 51.5887H38.9767L39.1794 49.6553H29.6062L29.4034 51.5887H32.7462L32.5484 53.5024H28.8694L28.6666 55.4358H32.3456L31.2083 66.2305H33.7351L34.8675 55.4358H38.9025L39.1053 53.5024Z" fill="white"/>
<path d="M29.3441 56.4985L27.4205 66.2301H29.5172L31.4605 56.4985H29.3441Z" fill="white"/>
<path d="M40.8311 63.0209L42.1068 50.8564H40.0646L38.7888 63.0209H40.8311Z" fill="white"/>
<path d="M45.7314 49.6553H43.3282L41.7607 64.5443H39.7679L39.5899 66.2305H43.9908L45.7314 49.6553Z" fill="white"/>
<path d="M61.4809 57.5815L59.2705 65.8939H61.8023L64.0077 57.5815H61.4809Z" fill="white"/>
<path d="M64.5615 50.733L64.9769 49.4819H62.4402L60.3238 55.8757H62.8605L63.9236 52.6664H74.1052L73.764 55.9301H76.2018L76.7507 50.733H64.5615Z" fill="white"/>
<path d="M72.9036 57.5815L73.1904 65.8939H75.7222L75.4353 57.5815H72.9036Z" fill="white"/>
<path d="M69.012 66.2306L70.3075 53.8882H67.7807L66.6879 64.2972H64.3539L64.1511 66.2306H69.012Z" fill="white"/>
<path d="M48.6984 35.8189C51.0917 35.8189 53.1043 34.825 54.3009 33.4454L58.9788 36.2936C56.3975 39.5177 52.6147 41.3671 48.0259 41.3671C39.9904 41.3671 35.4906 35.9129 36.2274 28.8466C36.9642 21.7804 42.6458 16.3262 50.1571 16.3262C57.2332 16.3262 61.6787 21.8743 60.9518 28.8466C60.8578 29.7466 60.6798 30.5526 60.4524 31.3586H42.4233C42.9574 34.4887 45.4496 35.8189 48.6984 35.8189ZM55.013 26.6165C54.6026 23.1996 52.1647 21.8249 49.5835 21.8249C46.2853 21.8249 43.8524 23.5803 42.8189 26.6165H55.013Z" fill="white"/>
<path d="M106.9 7.55469L103.414 40.7052H97.2818L97.5736 37.9113C95.6105 40.092 92.9155 41.3678 89.4244 41.3678C83.0159 41.3678 78.3627 35.9235 79.144 28.8671C79.9253 21.8108 85.7899 16.3665 92.1985 16.3665C95.6896 16.3665 98.0088 17.5038 99.4873 19.6845L100.763 7.55963H106.9V7.55469ZM98.5576 28.8671C98.9977 24.8865 96.4758 22.1916 92.6979 22.1916C88.8706 22.1916 85.7504 24.8915 85.3103 28.8671C84.8702 32.8478 87.3921 35.5427 91.2145 35.5427C94.9973 35.5427 98.1175 32.8428 98.5576 28.8671Z" fill="white"/>
<path d="M135.17 17.0086L132.663 40.7045H126.531L126.823 37.9155C124.859 40.0517 122.15 41.3671 118.659 41.3671C112.299 41.3671 107.661 35.9129 108.467 28.8466C109.273 21.7804 115.158 16.3262 121.517 16.3262C125.008 16.3262 127.278 17.414 128.751 19.5502L129.018 17.0135H135.17V17.0086ZM127.881 28.8466C128.336 24.861 125.824 22.1611 121.996 22.1611C118.219 22.1611 115.088 24.866 114.633 28.8466C114.179 32.8322 116.691 35.5321 120.468 35.5321C124.301 35.5321 127.431 32.8322 127.881 28.8466Z" fill="white"/>
<path d="M77.1512 17.0088L76.4936 23.269H71.9987L70.1641 40.7047H63.5182L66.0055 17.0088H77.1512Z" fill="white"/>
<path d="M34.0813 13.1715H27.4255L28.0733 7.05469H34.7241L34.0813 13.1715Z" fill="white"/>
<path d="M24.5327 40.7046H31.1836L33.6066 17.6862L18.3121 17.6763L17.6494 23.9365H26.298L24.5327 40.7046Z" fill="white"/>
<path d="M11.8342 2.58936H5.00536L1 40.7045H19.0637L19.7213 34.4443H8.48161L11.8342 2.58936Z" fill="white"/>
<path fill-rule="evenodd" clip-rule="evenodd" d="M141.291 2.58936C143.334 2.58936 145 4.25578 145 6.29308C145 8.33532 143.334 9.9968 141.291 9.9968C139.249 9.9968 137.583 8.33532 137.583 6.29308C137.583 4.25578 139.249 2.58936 141.291 2.58936ZM141.291 2.88605C143.17 2.88605 144.698 4.41897 144.698 6.29308C144.698 8.17213 143.17 9.7001 141.291 9.7001C139.417 9.7001 137.884 8.16719 137.884 6.29308C137.884 4.41897 139.417 2.88605 141.291 2.88605ZM139.526 8.5875V3.99865H141.558C141.969 3.99865 142.28 4.03821 142.493 4.12227C142.706 4.20634 142.879 4.34974 143.002 4.55743C143.131 4.76511 143.195 5.00246 143.195 5.24971C143.195 5.57607 143.091 5.84804 142.879 6.07056C142.671 6.29308 142.345 6.43648 141.905 6.50076C142.068 6.57494 142.186 6.64911 142.27 6.72823C142.448 6.89141 142.617 7.09415 142.775 7.33645L143.571 8.58256H142.804L142.201 7.6282C142.023 7.35623 141.875 7.1436 141.766 6.99525C141.652 6.8469 141.548 6.74801 141.455 6.68867C141.366 6.62933 141.272 6.58977 141.178 6.56505C141.108 6.55021 141 6.54032 140.841 6.54032H140.139V8.57761H139.526V8.5875ZM140.129 6.02606H141.435C141.712 6.02606 141.929 5.99638 142.087 5.93705C142.241 5.88265 142.364 5.7887 142.444 5.66013C142.528 5.53651 142.567 5.39805 142.567 5.24971C142.567 5.03213 142.488 4.85411 142.335 4.71566C142.176 4.5772 141.924 4.50797 141.588 4.50797H140.139V6.02606H140.129Z" fill="white"/>
</svg>
